<svg xmlns="http://www.w3.org/2000/svg" viewBox="0 0 80 78">
<g transform="translate(-10.003703,85.978582) scale(0.100000,-0.100000)"
fill="#000000" stroke="none">
<path d="M173 845 c-18 -8 -42 -29 -53 -47 -18 -30 -20 -50 -20 -243 0 -185 2
-215 18 -245 23 -44 73 -70 134 -70 47 0 47 0 50 -77 2 -45 8 -78 14 -80 6 -2
42 32 80 76 69 80 69 80 234 80 266 1 270 6 270 311 0 322 16 310 -400 310
-231 -1 -302 -4 -327 -15z m658 -54 c29 -29 29 -29 29 -240 0 -283 15 -265
-229 -269 -181 -3 -181 -3 -233 -64 -53 -61 -53 -61 -58 -2 -5 59 -5 59 -78
64 -65 4 -77 8 -98 33 -24 28 -24 31 -24 238 0 292 -31 269 360 269 302 0 302
0 331 -29z"/>
<path d="M342 637 c-12 -13 -22 -35 -22 -50 0 -32 32 -67 60 -67 26 0 25 -8
-2 -37 -16 -17 -19 -26 -11 -34 29 -29 93 62 93 132 0 69 -74 103 -118 56z
m73 -47 c0 -18 -6 -26 -23 -28 -13 -2 -25 3 -28 12 -10 26 4 48 28 44 17 -2
23 -10 23 -28z"/>
<path d="M562 637 c-12 -13 -22 -35 -22 -50 0 -32 32 -67 60 -67 26 0 25 -8
-2 -37 -16 -17 -19 -26 -11 -34 29 -29 93 62 93 132 0 69 -74 103 -118 56z
m73 -47 c0 -18 -6 -26 -23 -28 -13 -2 -25 3 -28 12 -10 26 4 48 28 44 17 -2
23 -10 23 -28z"/>
</g>
</svg>
