<svg xmlns="http://www.w3.org/2000/svg" viewBox="0 0 512 512" width="512" height="512">
  <defs>
    <linearGradient id="g" x1="0" y1="0" x2="512" y2="0" gradientUnits="userSpaceOnUse">
      <stop offset="0" stop-color="#00f1fe"/>
      <stop offset="0.5" stop-color="#37c1fe"/>
      <stop offset="1" stop-color="#4eabfe"/>
    </linearGradient>
  </defs>
  <path fill="url(#g)" d="M 252.79296875,12.10546875 C 264.65596875,22.24546875 272.32596875,35.64546875 274.99996875,51.00046875 C 275.40796875,56.60546875 275.39996874999997,62.18546875 275.37196875,67.80246875 C 275.37396875,69.48146875 275.37796875,71.16146875 275.38296875,72.84046875 C 275.39396875,77.42746875 275.38496875,82.01346875 275.37396875,86.60046875 C 275.36496875,91.55746875 275.37396875,96.51446875 275.37996875,101.47146875 C 275.38896875,110.05246875 275.38796875,118.63246875 275.37996875,127.21346875 C 275.36896875,139.62846875 275.37796875,152.04446875 275.39296875,164.45946875 C 275.41596875,184.61546875 275.42996875,204.77146875 275.43396875,224.92746875 C 275.43396875,226.13346875 275.43396875,227.33846875 275.43496875,228.58046875 C 275.43696875,242.03446875 275.43796875,255.48946875 275.43696875,268.94446875 C 275.43596875000003,273.82746875 275.43596875000003,278.71046875 275.43596875000003,283.59346875 C 275.43596875000003,284.79846875 275.43596875000003,286.00346875 275.43596875000003,287.24546875 C 275.43496875,307.33246875 275.44996875,327.42046875 275.47696875,347.50746875 C 275.49196875,359.89346875 275.49496875,372.27946875 275.47996875,384.66546875 C 275.46996875,393.14746875 275.47496875,401.62946875 275.49096875,410.11146875 C 275.49896875,415.00546875 275.50196875,419.89946875 275.48596875,424.79346875 C 275.47196875,429.27446875 275.47696875,433.75446875 275.49596875,438.23446875 C 275.49896875,439.85446875 275.49596875,441.47546875 275.48596875,443.09546875 C 275.39296875,458.20246875 275.39296875,458.20246875 279.99996875,465.00046875 C 284.23796875,469.12946875 287.93496875,470.83046875 293.81296875,471.31246875 C 298.88396875,471.14946875 303.66196875,470.06046875 307.54296875,466.64046875 C 312.53696875,460.95746875 313.28296875,455.81546875 313.27296875,448.48046875 C 313.29396875,446.80146875 313.31496875,445.12246875 313.33596875,443.44346875 C 313.35896875000003,440.81646875 313.37496875,438.19046875 313.38096875,435.56446875 C 313.38996875,433.01546875 313.42396875,430.46646875 313.46096875,427.91746875 C 313.45596875,427.14346875 313.45096875,426.36946875 313.44596875,425.57146875 C 313.56196875,419.06946875 315.41096875,413.66546875 319.99996875,408.94146875 C 320.65996875,408.48646875 321.31996875,408.03146875 321.99996875,407.56246875 C 322.65996875,407.08946875 323.31996875,406.61646875 323.99996875,406.12846875 C 328.34096875,403.67846875 333.10396875000004,403.38046875 337.99996875,404.00046875 C 343.64396875,405.70546875 347.87496875,407.83246875 350.99996875,413.00046875 C 353.80196875,418.52146875 354.44496875,422.82746875 354.39796875,428.97646875 C 354.40096875,429.82346875 354.40396875,430.67046875 354.40696875000003,431.54346875 C 354.40896875,433.33046875 354.40396875,435.11746875 354.39096875,436.90346875 C 354.37496875,439.59646875 354.39096875,442.28746875 354.40996875,444.98046875 C 354.43396875,463.49946875 351.04896875,478.93046875 338.60896875000003,493.39446875 C 326.44096875,505.54546875 310.87096875,511.82546875 293.81296875,512.37546875 C 277.66896875,512.0984687499999 263.76496875,506.17546875 252.02696875,495.16046875 C 237.95096875,480.16146875 234.52496875,462.98446875 234.63496874999998,443.07746875 C 234.63296875,441.39746875 234.62996875,439.71646875 234.62496875,438.03646875 C 234.61696875,433.45246875 234.62696875,428.86846875 234.64096875,424.28346875 C 234.65196875,419.32746875 234.64496875,414.37146875 234.63996875,409.41446875 C 234.63496874999998,400.83646875 234.63896875,392.25846875 234.64996875,383.68046875 C 234.66596875,371.26946875 234.66096875,358.85846875 234.64896875,346.44746875 C 234.62996875,326.29746875 234.62096875,306.14646875 234.62096875,285.99646875 C 234.62096875,285.39446875 234.62096875,285.39446875 234.62096875,282.34646875 C 234.62196875,268.89646875 234.62496875,255.44746875 234.63196875,241.99746875 C 234.63296875,240.78746875 234.63296875,239.57746875 234.63396875,238.33046875 C 234.63496874999998,237.12146875 234.63496874999998,235.91246875 234.63596875,234.66646875 C 234.63696875,232.22846875 234.63796875,229.78946875 234.63996875,227.35146875 C 234.63996875,226.14646875 234.64096875,224.94146875 234.64196875,223.70046875 C 234.65196875,203.61746875 234.64196875,183.53446875 234.61696875,163.45146875 C 234.60296875,151.06946875 234.60496875,138.68746875 234.62796875,126.30546875 C 234.64296875,117.82646875 234.63996875,109.34846875 234.62296874999998,100.86946875 C 234.61296875,95.97746875 234.61196875,91.08546875 234.63296875,86.19346875 C 234.65196875,81.71446875 234.64796875,77.23646875 234.62496875,72.75746875 C 234.62096875,71.13746875 234.62596875,69.51846875 234.63896875,67.89846875 C 234.76396875,52.14246875 234.76396875,52.14246875 228.99996875,46.00046875 C 224.42996875,41.756468749999996 220.66096875,40.56446875 214.54696875,40.66446875 C 209.86096874999998,41.28246875 205.63796875,42.984468750000005 201.99996875,46.00046875 C 197.67296875,52.84346875 197.43596875,58.49646875 197.50796875,66.47146875 C 197.50596875,67.09346875 197.50596875,67.09346875 197.49396875,70.24446875000001 C 197.48496875,73.68446875000001 197.49396875,77.12446875 197.50996874999998,80.56446875 C 197.52296875,84.28046875 197.51296875,87.99746875 197.50596875,91.71446875 C 197.49596875,98.15146875 197.50096875,104.58946875 197.51396875,111.02646875 C 197.53396874999999,120.35146875 197.52696875,129.67646875 197.51396875,139.00146875000002 C 197.49196875,154.15546875 197.48496875,169.30846875 197.49096875,184.46146875 C 197.49096875,184.91546875 197.49096875,184.91546875 197.49196875,187.20846875 C 197.49396875,194.55846875 197.49796874999998,201.90746875 197.50096875,209.25646875 C 197.50396875,215.66946875 197.50696875,222.08246875 197.50896875,228.49546875 C 197.50996874999998,229.39846875 197.50996874999998,230.30046875 197.50996874999998,231.23146875 C 197.51496875,246.31946875 197.50496875,261.40746875 197.48296875,276.49546875 C 197.46996875,285.78946875 197.47096875,295.08246875 197.49096875,304.37546875 C 197.50396875,310.75246875 197.50196875,317.13046875 197.48996875,323.50846875 C 197.48296875,327.18046875 197.48296875,330.85146875 197.49996875,334.52346875 C 197.60696875,358.28346875 196.56596875,377.62946875 179.37496875,395.75046875 C 167.41196875,407.08346875 152.60396875,412.40346875 136.29696875000002,412.37046875 C 119.40696875,411.90146875 104.91496875000001,404.65946875 93.36196874999999,392.54546875 C 83.36396875,381.19646875 78.83196874999999,367.03146875 78.86896875,352.11946875 C 78.86796874999999,351.73146875 78.86796874999999,351.73146875 78.86196874999999,349.76946875 C 78.85596874999999,347.18146875 78.85696875,344.59246875 78.85796875,342.00446875 C 78.85496875000001,340.14446875 78.85196875,338.28446875 78.84796875,336.42546875 C 78.83996875,332.42446875 78.83496875,328.42346875 78.83096875000001,324.42246875 C 78.82496875000001,318.09446875 78.80896874999999,311.76546875 78.78996875000001,305.43646875 C 78.78396875000001,303.26846875 78.77696875000001,301.09946875 78.77096875000001,298.93146875 C 78.76796875,297.84546875 78.76496875000001,296.76046875 78.76096874999999,295.64146875 C 78.71896874999999,280.91146875 78.68596875,266.18046875 78.67396875,251.45046875 C 78.66596874999999,241.50846875 78.64296875,231.56646875 78.60496875000001,221.62446875 C 78.58496875,216.36646875 78.57296875,211.10846875 78.57796875,205.84946875 C 78.58196874999999,200.90346875 78.56796875,195.95746875 78.54096874999999,191.01146875 C 78.53396875000001,189.19946875 78.53396875000001,187.38646875 78.54096874999999,185.57446875 C 78.54996875,183.09346875 78.53396875000001,180.61446875 78.51196875,178.13446875 C 78.52096875000001,177.42246875 78.52896874999999,176.71146875 78.53796875,175.97746875 C 78.43996874999999,169.89846875 76.46196875000001,164.54246875 72.21896874999999,160.16046875 C 71.65196875000001,159.79746875 71.08396875,159.43546875 70.49996875,159.06246875 C 69.93296874999999,158.68246875 69.36596875000001,158.30146875 68.78096875,157.91046875 C 64.47296875,155.70846875 59.75796875,155.37946875 54.999968749999994,156.00046875 C 49.71596875,157.76146875 46.02296874999999,160.23246875 42.999968749999994,165.00046875 C 41.09896875000001,168.94946875 40.74796875000001,172.11046875 40.74196875000001,176.47646875 C 40.73496875000001,177.78546875 40.72796875,179.09546875 40.72096875,180.44446875 C 40.72296875000001,181.88846875 40.72596874999999,183.33246875 40.72896875000001,184.77646875 C 40.72396875000001,186.30346875 40.71896874999999,187.82946875 40.71296874999999,189.35546875 C 40.70096874999999,192.63846875 40.69596874999999,195.92246875 40.69496874999999,199.20546875 C 40.692968750000006,204.39946875 40.674968750000005,209.59346875 40.65396874999999,214.78846875 C 40.60496875000001,227.69046875 40.573968750000006,240.59246875 40.55296874999999,253.49546875 C 40.535968749999995,263.52246875000003 40.513968750000004,273.54846875 40.46996874999999,283.57546875 C 40.44796875,288.73646875 40.43996874999999,293.89646875 40.44196875,299.05746875 C 40.440968749999996,302.27146875 40.426968749999986,305.48646875 40.408968750000014,308.70146875 C 40.40396874999999,310.18846875 40.402968750000014,311.67546875 40.40796875000001,313.16246875 C 40.43896874999999,323.21146875 40.17396875,330.40346875 32.999968749999994,338.00046875 C 27.354968750000012,341.95146875 21.77296874999999,342.76946875 14.999968749999994,342.00046875 C 8.390968750000013,340.11646875 4.329968750000006,335.89846875 0.9999687499999936,330.00046875 C -0.13303124999998772,326.51946875 -0.1340312499999925,323.22746875 -0.14703124999999773,319.58346875 C -0.1510312499999884,318.94146875 -0.15403125000000273,318.29946875 -0.1580312499999934,317.63746875 C -0.16903124999998909,315.48746875 -0.17303125000000819,313.33846875 -0.17703124999999886,311.18846875 C -0.1830312499999991,309.64546875 -0.1900312500000041,308.10246875 -0.1970312500000091,306.56046875 C -0.21803124999999568,301.49146875 -0.22803124999998658,296.42346875 -0.2380312500000059,291.35546875 C -0.2420312499999966,289.60646875 -0.24603124999998727,287.85646875 -0.25103125000001114,286.10746875 C -0.2700312499999882,277.88146875 -0.2840312499999982,269.65446875 -0.29203125000000796,261.42846875 C -0.30203124999999886,251.96046875 -0.3280312500000093,242.49346875 -0.36903125000000614,233.02546875 C -0.3990312500000073,225.69246875 -0.41403124999999363,218.35846875 -0.41703125000000796,211.02446875 C -0.4190312499999891,206.65346875 -0.42803125000000364,202.28146875 -0.4530312500000093,197.90946875 C -0.47703125000001023,193.78646875 -0.4810312500000009,189.66446875 -0.47103125000001,185.54146875 C -0.47003125000000523,184.03946875 -0.47603125000000546,182.53846875 -0.49003124999998704,181.03646875 C -0.6510312499999884,162.60546875 3.768968749999999,146.86546875 16.733968750000003,133.27746875 C 17.107968749999998,132.90146875 17.107968749999998,132.90146875 18.999968749999994,131.00046874999998 C 19.301968749999986,130.68046875 19.301968749999986,130.68046875 20.827968749999997,129.06646875 C 30.87996874999999,119.25446875 44.92996875,115.13446875 58.624968749999994,114.62546875 C 74.63296875,114.92046875 90.17496875,120.47246875 101.87496875,131.65646875 C 113.07196875,144.00546875 119.17296875,158.02146875 119.13096875,174.88046875 C 119.13196875,175.26846875 119.13196875,175.26846875 119.13796875,177.23046875 C 119.14396875,179.81846875 119.14296875,182.40746875 119.14196874999999,184.99546875 C 119.14496875,186.85546875 119.14796874999999,188.71546875 119.15196875000001,190.57546875 C 119.15996874999999,194.57546875 119.16496875000001,198.57646875 119.16896875,202.57746875 C 119.17496875,208.90546875 119.19096875,215.23446875 119.20996875,221.56346875 C 119.21596875,223.73146875 119.22296875,225.90046875 119.22896875,228.06846875 C 119.23196875,229.15446875 119.23496875000001,230.24046875 119.23896875,231.35846875 C 119.28096875,246.08846875 119.31396874999999,260.81946875 119.32596874999999,275.54946875 C 119.33396875,285.49146875 119.35696875,295.43346875 119.39496875,305.37546875 C 119.41496875000001,310.63346875 119.42696874999999,315.89146875 119.42196874999999,321.15046875 C 119.41796875,326.09646875 119.43196875000001,331.04246875 119.45896875,335.98846875 C 119.46596875,337.80146875 119.46696875,339.61346875 119.45896875,341.42546875 C 119.44996875000001,343.90646875 119.46596875,346.38546875 119.48796875,348.86546875 C 119.48396875,349.22146875 119.48396875,349.22146875 119.46196875000001,351.02246875 C 119.55796874999999,356.95846875 121.37996874999999,362.22646875 125.48296875,366.56946875 C 130.03096875,370.50746875 133.76896875,371.36246875 139.58996875,371.27746875 C 145.05196875000001,370.64846875 149.32296875,368.08146875 152.93796874999998,364.00046875 C 155.80996875,359.82146875 156.12496875,356.77446875 156.12796874999998,351.77046875 C 156.13096875,350.70646875 156.13396875,349.64146875 156.13696875,348.54446875 C 156.13596875000002,347.96046875 156.13596875000002,347.96046875 156.13096875,345.00346875 C 156.13296875,343.76046875 156.13596875000002,342.51846875 156.13796875,341.23846875 C 156.14196875,338.50846875 156.14396875,335.77846875 156.14296875,333.04846875 C 156.14096875,328.60546875 156.14596875,324.16346875 156.15196874999998,319.72146875 C 156.16096875,313.26946875 156.16496875,306.81746875 156.16896875,300.36546875 C 156.17396875,290.15746875 156.19096875,279.95046875 156.20996875,269.74246875 C 156.21596875,266.24846875000003 156.22296875,262.75446875 156.22896875,259.26046875 C 156.23096875,258.38746875000004 156.23196875,257.51346875 156.23396875,256.61346875000004 C 156.25196875,246.67046875 156.26796875,236.72746875 156.28296875,226.78446875 C 156.28396874999999,225.87646875 156.28596875,224.96746875 156.28696875,224.03046875 C 156.30896875000002,209.32346875 156.31996875,194.61546875 156.32696875,179.90846875 C 156.33496875,164.79646875 156.35896875,149.68446875 156.39496875,134.57246874999998 C 156.41696875,125.25946875 156.42696875000001,115.94746875 156.42096875,106.63446875 C 156.41796875,100.24146875 156.42896875,93.84946875 156.45196875,87.45646875 C 156.46396875,83.77446875 156.47096875,80.09346875 156.45896875,76.41146875 C 156.39596875,53.65446875 157.23196875,34.58346875 173.72296875,17.21446875 C 195.41096875,-3.8775312500000005 228.62796875,-6.111531249999999 252.79296875,12.10546875"/>
  <path fill="url(#g)" d="M 407.0,125.0 C 410.541,127.811 413.799,130.81 417.0,134.0 C 417.325,134.313 417.325,134.313 418.969,135.898 C 432.305,149.761 433.452,168.676 433.385,186.822 C 433.389,188.686 433.394,190.55 433.401,192.414 C 433.413,196.402 433.415,200.39 433.411,204.378 C 433.404,210.686 433.42,216.994 433.439,223.30200000000002 C 433.48,237.81900000000002 433.491,252.336 433.503,266.853 C 433.513,280.185 433.53,293.51599999999996 433.571,306.848 C 433.589,313.118 433.593,319.387 433.586,325.65700000000004 C 433.584,329.552 433.595,333.448 433.609,337.34299999999996 C 433.613,339.148 433.612,340.953 433.605,342.75800000000004 C 433.597,345.223 433.60699999999997,347.688 433.621,350.153 C 433.615,350.866 433.608,351.579 433.601,352.313 C 433.653,356.938 434.573,360.071 437.0,364.0 C 441.80899999999997,368.6 445.681,371.023 452.312,371.375 C 457.244,371.236 461.04,369.959 465.0,367.0 C 469.996,361.65700000000004 471.123,357.073 471.131,349.84000000000003 C 471.135,348.576 471.139,347.31100000000004 471.14300000000003,346.009 C 471.14300000000003,344.61 471.142,343.211 471.142,341.812 C 471.145,340.336 471.148,338.861 471.152,337.38599999999997 C 471.15999999999997,334.209 471.165,331.033 471.169,327.85699999999997 C 471.175,322.831 471.19100000000003,317.804 471.21,312.778 C 471.216,311.05600000000004 471.223,309.334 471.229,307.61199999999997 C 471.23199999999997,306.749 471.235,305.887 471.23900000000003,304.998 C 471.281,293.298 471.31399999999996,281.598 471.326,269.898 C 471.334,262.003 471.35699999999997,254.109 471.395,246.214 C 471.415,242.039 471.427,237.864 471.422,233.688 C 471.418,229.75799999999998 471.432,225.828 471.459,221.898 C 471.466,220.45999999999998 471.467,219.022 471.459,217.583 C 471.419,208.711 471.515,201.61700000000002 478.0,194.941 C 478.65999999999997,194.486 479.32,194.031 480.0,193.562 C 480.65999999999997,193.089 481.32,192.61599999999999 482.0,192.12900000000002 C 486.323,189.689 491.127,189.284 496.0,190.0 C 502.61,192.15300000000002 506.812,195.00900000000001 510.15999999999997,201.13299999999998 C 511.872,204.939 512.131,207.924 512.147,212.062 C 512.151,212.696 512.151,212.696 512.169,215.905 C 512.172,217.314 512.174,218.723 512.177,220.132 C 512.183,221.613 512.19,223.095 512.197,224.577 C 512.218,229.451 512.228,234.325 512.238,239.199 C 512.242,240.881 512.246,242.563 512.251,244.245 C 512.27,252.15800000000002 512.284,260.071 512.292,267.98400000000004 C 512.302,277.089 512.328,286.193 512.369,295.297 C 512.399,302.35 512.414,309.402 512.417,316.45500000000004 C 512.419,320.658 512.428,324.86199999999997 512.453,329.065 C 512.477,333.03200000000004 512.481,336.999 512.471,340.966 C 512.47,342.409 512.476,343.852 512.49,345.29499999999996 C 512.657,363.619 508.30899999999997,381.244 495.359,394.871 C 487.92,401.584 479.628,407.046 470.0,410.0 C 469.661,410.112 469.661,410.112 467.945,410.676 C 452.904,414.848 435.85699999999997,411.817 422.336,404.473 C 407.229,394.949 397.848,382.002 393.638,364.68100000000004 C 392.355,357.277 392.587,349.801 392.615,342.307 C 392.611,340.445 392.606,338.58299999999997 392.599,336.72 C 392.587,332.733 392.585,328.746 392.589,324.75800000000004 C 392.596,318.45 392.58,312.142 392.561,305.834 C 392.52,291.313 392.509,276.793 392.497,262.272 C 392.487,248.94400000000002 392.47,235.615 392.429,222.287 C 392.411,216.018 392.407,209.75 392.414,203.481 C 392.416,199.584 392.405,195.686 392.391,191.789 C 392.387,189.98399999999998 392.388,188.179 392.395,186.374 C 392.403,183.90699999999998 392.39300000000003,181.441 392.379,178.974 C 392.385,178.263 392.392,177.553 392.399,176.821 C 392.328,170.567 390.723,166.106 386.75,161.25 C 381.983,157.35 377.299,155.382 371.051,155.648 C 366.012,156.512 362.158,158.812 358.625,162.438 C 355.60699999999997,167.197 354.75,170.905 354.748,176.539 C 354.745,177.18200000000002 354.743,177.825 354.739,178.488 C 354.73199999999997,180.635 354.738,182.78199999999998 354.745,184.929 C 354.742,186.471 354.738,188.014 354.734,189.55700000000002 C 354.726,192.876 354.723,196.195 354.726,199.515 C 354.728,204.768 354.714,210.022 354.697,215.275 C 354.65,230.214 354.626,245.152 354.619,260.091 C 354.615,268.344 354.597,276.596 354.564,284.849 C 354.544,290.06600000000003 354.541,295.283 354.552,300.5 C 354.555,303.754 354.541,307.00800000000004 354.522,310.262 C 354.517,311.764 354.51800000000003,313.267 354.527,314.769 C 354.577,323.822 354.468,332.183 348.0,339.156 C 347.34000000000003,339.6 346.68,340.043 346.0,340.5 C 345.34000000000003,340.964 344.68,341.428 344.0,341.906 C 338.825,344.736 332.472,344.98900000000003 326.848,343.387 C 321.318,340.977 318.046,337.13300000000004 315.0,332.0 C 313.877,328.631 313.868,326.084 313.86,322.53200000000004 C 313.85699999999997,321.872 313.854,321.212 313.851,320.533 C 313.842,318.317 313.84000000000003,316.102 313.839,313.887 C 313.834,312.3 313.829,310.71299999999997 313.824,309.126 C 313.81100000000004,304.81 313.804,300.493 313.8,296.177 C 313.797,293.477 313.793,290.777 313.788,288.077 C 313.775,279.622 313.765,271.166 313.76099999999997,262.711 C 313.757,252.96699999999998 313.73900000000003,243.223 313.71,233.47899999999998 C 313.688,225.939 313.678,218.399 313.677,210.85899999999998 C 313.676,206.361 313.67,201.862 313.652,197.364 C 313.63599999999997,193.125 313.634,188.885 313.642,184.64600000000002 C 313.64300000000003,183.098 313.639,181.55 313.629,180.002 C 313.51300000000003,160.82 318.346,144.977 332.0,131.0 C 353.06,112.717 383.411,108.758 407.0,125.0"/>
</svg>
